<svg width="130" height="24" viewBox="0 0 130 24" version="1.1" xmlns="http://www.w3.org/2000/svg" xmlns:xlink="http://www.w3.org/1999/xlink">
<title>Group</title>
<desc>Created using Figma</desc>
<g id="Canvas" transform="translate(-35495 116)">
<g id="Group">
<g id="GAMISOFT">
<use xlink:href="#path0_fill" transform="translate(35527 -118)" fill="#FFFFFF"></use>
<use xlink:href="#path1_fill" transform="translate(35527 -118)" fill="#FF6D00"></use>
</g>
<g id="Group">
<g id="Union">
<use xlink:href="#path2_fill" transform="translate(35495 -116)" fill="#FF6D00"></use>
<use xlink:href="#path2_fill" transform="translate(35495 -116)" fill="url(#paint3_linear)"></use>
</g>
</g>
</g>
</g>
<defs>
<linearGradient id="paint3_linear" x1="0" y1="0" x2="1" y2="0" gradientUnits="userSpaceOnUse" gradientTransform="matrix(-24 24 -109.339 -123.458 78.6696 61.7292)">
<stop offset="0" stop-color="#F2994A"></stop>
<stop offset="1" stop-color="#FF5900"></stop>
</linearGradient>
<path id="path0_fill" d="M 58.5614 17.6875C 58.5614 16.8359 58.3309 16.1836 57.87 15.7305C 57.4091 15.2773 56.577 14.8359 55.3739 14.4062C 54.1708 13.9766 53.2489 13.5273 52.6083 13.0586C 51.9755 12.582 51.4989 12.043 51.1786 11.4414C 50.8661 10.832 50.7098 10.1367 50.7098 9.35547C 50.7098 8.00391 51.1591 6.89062 52.0575 6.01562C 52.9637 5.14063 54.1473 4.70312 55.6083 4.70312C 56.6083 4.70312 57.4989 4.92969 58.2802 5.38281C 59.0614 5.82812 59.663 6.44922 60.0848 7.24609C 60.5067 8.04297 60.7177 8.91797 60.7177 9.87109L 58.5614 9.87109C 58.5614 8.81641 58.3075 8 57.7997 7.42188C 57.2919 6.84375 56.5614 6.55469 55.6083 6.55469C 54.7411 6.55469 54.0692 6.79687 53.5927 7.28125C 53.1161 7.76563 52.8778 8.44531 52.8778 9.32031C 52.8778 10.0391 53.1356 10.6406 53.6512 11.125C 54.1669 11.6094 54.9637 12.043 56.0419 12.4258C 57.7216 12.9805 58.9208 13.6641 59.6395 14.4766C 60.3661 15.2891 60.7294 16.3516 60.7294 17.6641C 60.7294 19.0469 60.2802 20.1563 59.3817 20.9922C 58.4833 21.8203 57.2606 22.2344 55.7137 22.2344C 54.7216 22.2344 53.8036 22.0195 52.9598 21.5898C 52.1239 21.1523 51.4637 20.543 50.9794 19.7617C 50.5028 18.9727 50.2645 18.0703 50.2645 17.0547L 52.4208 17.0547C 52.4208 18.1094 52.7137 18.9297 53.2997 19.5156C 53.8934 20.1016 54.6981 20.3945 55.7137 20.3945C 56.6591 20.3945 57.37 20.1523 57.8466 19.668C 58.3231 19.1836 58.5614 18.5234 58.5614 17.6875ZM 73.9313 14.9688C 73.9313 17.2969 73.4352 19.0898 72.443 20.3477C 71.4508 21.6055 70.0406 22.2344 68.2125 22.2344C 66.4547 22.2344 65.0641 21.625 64.0406 20.4062C 63.025 19.1797 62.4977 17.4492 62.4586 15.2148L 62.4586 12.0039C 62.4586 9.72266 62.9625 7.9375 63.9703 6.64844C 64.9781 5.35156 66.3844 4.70312 68.1891 4.70312C 69.9859 4.70312 71.3844 5.32422 72.3844 6.56641C 73.3922 7.80078 73.9078 9.56641 73.9313 11.8633L 73.9313 14.9688ZM 71.7867 11.9805C 71.7867 10.1758 71.4898 8.83594 70.8961 7.96094C 70.3102 7.07812 69.4078 6.63672 68.1891 6.63672C 67.0094 6.63672 66.1148 7.08203 65.5055 7.97266C 64.9039 8.86328 64.5992 10.1758 64.5914 11.9102L 64.5914 14.9688C 64.5914 16.7109 64.8922 18.0391 65.4938 18.9531C 66.1031 19.8672 67.0094 20.3242 68.2125 20.3242C 69.4156 20.3242 70.3063 19.9023 70.8844 19.0586C 71.4625 18.2148 71.7633 16.9219 71.7867 15.1797L 71.7867 11.9805ZM 84.4378 14.4648L 78.6722 14.4648L 78.6722 22L 76.5277 22L 76.5277 4.9375L 85.4105 4.9375L 85.4105 6.78906L 78.6722 6.78906L 78.6722 12.625L 84.4378 12.625L 84.4378 14.4648ZM 97.5459 6.78906L 93.0577 6.78906L 93.0577 22L 90.9131 22L 90.9131 6.78906L 86.4366 6.78906L 86.4366 4.9375L 97.5459 4.9375L 97.5459 6.78906Z"></path>
<path id="path1_fill" d="M 12.5156 19.8789L 12.1406 20.3477C 11.0625 21.6055 9.48437 22.2344 7.40625 22.2344C 5.5625 22.2344 4.11328 21.625 3.05859 20.4062C 2.01172 19.1797 1.47656 17.4492 1.45312 15.2148L 1.45312 11.8633C 1.45312 9.47266 1.92969 7.68359 2.88281 6.49609C 3.84375 5.30078 5.27734 4.70312 7.18359 4.70312C 8.80859 4.70312 10.0781 5.15625 10.9922 6.0625C 11.9141 6.96875 12.4219 8.26172 12.5156 9.94141L 10.3711 9.94141C 10.2852 8.87891 9.98828 8.05078 9.48047 7.45703C 8.98047 6.85547 8.21875 6.55469 7.19531 6.55469C 5.96875 6.55469 5.07031 6.95703 4.5 7.76172C 3.92969 8.55859 3.63281 9.83594 3.60938 11.5938L 3.60938 15.0742C 3.60938 16.793 3.9375 18.1133 4.59375 19.0352C 5.25 19.9492 6.19141 20.4062 7.41797 20.4062C 8.57422 20.4062 9.45313 20.125 10.0547 19.5625L 10.3711 19.2695L 10.3711 15.332L 7.25391 15.332L 7.25391 13.5039L 12.5156 13.5039L 12.5156 19.8789ZM 23.2566 17.5469L 17.4909 17.5469L 16.1667 22L 13.9636 22L 19.4597 4.9375L 21.2995 4.9375L 26.8073 22L 24.6042 22L 23.2566 17.5469ZM 18.0534 15.6953L 22.7058 15.6953L 20.3737 7.9375L 18.0534 15.6953ZM 31.1733 4.9375L 35.6264 18.8594L 40.0795 4.9375L 42.8452 4.9375L 42.8452 22L 40.7006 22L 40.7006 15.3555L 40.8998 8.69922L 36.435 22L 34.7944 22L 30.353 8.74609L 30.5522 15.3555L 30.5522 22L 28.4077 22L 28.4077 4.9375L 31.1733 4.9375ZM 48.0666 22L 45.922 22L 45.922 4.9375L 48.0666 4.9375L 48.0666 22Z"></path>
<path id="path2_fill" fill-rule="evenodd" d="M 16 4C 16 1.79086 14.2109 4.6564e-16 12 2.45806e-32L 12 0C 9.78906 3.97651e-16 8 1.79086 8 4C 8 6.20914 9.78906 8 12 8C 14.2109 8 16 6.20914 16 4ZM 4 16C 6.21094 16 8 14.2091 8 12C 8 9.79086 6.21094 8 4 8C 1.78906 8 4.6553e-16 9.79086 2.46956e-32 12L 0 12C 3.97252e-16 14.2091 1.78906 16 4 16ZM 20 16C 22.2109 16 24 14.2091 24 12C 24 9.79086 22.2109 8 20 8C 17.7891 8 16 9.79086 16 12C 16 14.2091 17.7891 16 20 16ZM 12 16C 14.2109 16 16 17.7909 16 20C 16 22.2091 14.2109 24 12 24C 9.78906 24 8 22.2091 8 20C 8 17.7909 9.78906 16 12 16Z"></path>
</defs>
</svg>